# xmcd
#
# Track frame offsets:
#	150
#	7700
#	21895
#	35223
#	50379
#	71393
#	85754
#	98852
#	113604
#	131415
#	145808
#	164173
#	174724
#	187849
#	204422
#	217172
#	235344
#	247843
#
# Disc length: 3524 seconds
#
# Revision: 0
# Processed by: cddbd v1.5.2PL0 Copyright (c) Steve Scherf et al.
# Submitted via: EZCDAudioConverter 1.0.4.1
#
DISCID=f10dc212
DTITLE=Paddy Milner - Curious Case Of Paddy Milner 
DYEAR=2012
DGENRE=Blues
TTITLE0=Going To See My Baby
TTITLE1=Jump Into My Car
TTITLE2=You've Get Me
TTITLE3=Call On Me
TTITLE4=Believe
TTITLE5=Alright
TTITLE6=As She Walked Away
TTITLE7=Come On In My Kitchen
TTITLE8=Things Behind The Sun
TTITLE9=Louisiana Blues
TTITLE10=(You've Got A) Right To Your Soul
TTITLE11=Unsquare Dance
TTITLE12=Dísturbia
TTITLE13=All The While
TTITLE14=The James Bond Theme
TTITLE15=White Room
TTITLE16=Come As You Are
TTITLE17=Mother Earth
EXTD=
EXTT0=
EXTT1=
EXTT2=
EXTT3=
EXTT4=
EXTT5=
EXTT6=
EXTT7=
EXTT8=
EXTT9=
EXTT10=
EXTT11=
EXTT12=
EXTT13=
EXTT14=
EXTT15=
EXTT16=
EXTT17=
PLAYORDER=
